<svg width="61" height="97" viewBox="0 0 61 97" fill="none" xmlns="http://www.w3.org/2000/svg">
<path d="M23.9602 35.7273L30.4943 46.8778L37.0284 35.7273H41.858L33.0511 49.3636L41.858 63H37.0284L30.4943 52.4176L23.9602 63H19.1307L27.7955 49.3636L19.1307 35.7273H23.9602Z" fill="#5AD70D"/>
<path d="M56.1364 48.9091C56.1364 55.0455 55.0284 60.3485 52.8125 64.8182C50.5966 69.2879 47.5568 72.7348 43.6932 75.1591C39.8295 77.5833 35.4167 78.7955 30.4545 78.7955C25.4924 78.7955 21.0795 77.5833 17.2159 75.1591C13.3523 72.7348 10.3125 69.2879 8.09659 64.8182C5.88068 60.3485 4.77273 55.0455 4.77273 48.9091C4.77273 42.7727 5.88068 37.4697 8.09659 33C10.3125 28.5303 13.3523 25.0833 17.2159 22.6591C21.0795 20.2348 25.4924 19.0227 30.4545 19.0227C35.4167 19.0227 39.8295 20.2348 43.6932 22.6591C47.5568 25.0833 50.5966 28.5303 52.8125 33C55.0284 37.4697 56.1364 42.7727 56.1364 48.9091ZM49.3182 48.9091C49.3182 43.8712 48.4754 39.6193 46.7898 36.1534C45.1231 32.6875 42.8598 30.0644 40 28.2841C37.1591 26.5038 33.9773 25.6136 30.4545 25.6136C26.9318 25.6136 23.7405 26.5038 20.8807 28.2841C18.0398 30.0644 15.7765 32.6875 14.0909 36.1534C12.4242 39.6193 11.5909 43.8712 11.5909 48.9091C11.5909 53.947 12.4242 58.1989 14.0909 61.6648C15.7765 65.1307 18.0398 67.7538 20.8807 69.5341C23.7405 71.3144 26.9318 72.2045 30.4545 72.2045C33.9773 72.2045 37.1591 71.3144 40 69.5341C42.8598 67.7538 45.1231 65.1307 46.7898 61.6648C48.4754 58.1989 49.3182 53.947 49.3182 48.9091Z" fill="#5AD70D"/>
</svg>
